<?xml version="1.0" encoding="utf-8" standalone="no"?>
<!DOCTYPE svg PUBLIC "-//W3C//DTD SVG 1.1//EN"
  "http://www.w3.org/Graphics/SVG/1.1/DTD/svg11.dtd">
<svg xmlns:xlink="http://www.w3.org/1999/xlink" width="460.8pt" height="345.6pt" viewBox="0 0 460.8 345.6" xmlns="http://www.w3.org/2000/svg" version="1.1">
 <metadata>
  <rdf:RDF xmlns:dc="http://purl.org/dc/elements/1.1/" xmlns:cc="http://creativecommons.org/ns#" xmlns:rdf="http://www.w3.org/1999/02/22-rdf-syntax-ns#">
   <cc:Work>
    <dc:type rdf:resource="http://purl.org/dc/dcmitype/StillImage"/>
    <dc:date>2024-01-10T00:23:12.077497</dc:date>
    <dc:format>image/svg+xml</dc:format>
    <dc:creator>
     <cc:Agent>
      <dc:title>Matplotlib v3.8.2, https://matplotlib.org/</dc:title>
     </cc:Agent>
    </dc:creator>
   </cc:Work>
  </rdf:RDF>
 </metadata>
 <defs>
  <style type="text/css">*{stroke-linejoin: round; stroke-linecap: butt}</style>
 </defs>
 <g id="figure_1">
  <g id="patch_1">
   <path d="M 0 345.6 
L 460.8 345.6 
L 460.8 0 
L 0 0 
z
" style="fill: #ffffff"/>
  </g>
  <g id="axes_1">
   <g id="patch_2">
    <path d="M 57.6 307.584 
L 414.72 307.584 
L 414.72 41.472 
L 57.6 41.472 
z
" style="fill: #ffffff"/>
   </g>
   <g id="matplotlib.axis_1">
    <g id="xtick_1">
     <g id="line2d_1">
      <defs>
       <path id="m5b343a20d4" d="M 0 0 
L 0 3.5 
" style="stroke: #000000; stroke-width: 0.8"/>
      </defs>
      <g>
       <use xlink:href="#m5b343a20d4" x="57.6" y="307.584" style="stroke: #000000; stroke-width: 0.8"/>
      </g>
     </g>
     <g id="text_1">
      <!-- 125 -->
      <g transform="translate(48.05625 322.182437) scale(0.1 -0.1)">
       <defs>
        <path id="DejaVuSans-31" d="M 794 531 
L 1825 531 
L 1825 4091 
L 703 3866 
L 703 4441 
L 1819 4666 
L 2450 4666 
L 2450 531 
L 3481 531 
L 3481 0 
L 794 0 
L 794 531 
z
" transform="scale(0.015625)"/>
        <path id="DejaVuSans-32" d="M 1228 531 
L 3431 531 
L 3431 0 
L 469 0 
L 469 531 
Q 828 903 1448 1529 
Q 2069 2156 2228 2338 
Q 2531 2678 2651 2914 
Q 2772 3150 2772 3378 
Q 2772 3750 2511 3984 
Q 2250 4219 1831 4219 
Q 1534 4219 1204 4116 
Q 875 4013 500 3803 
L 500 4441 
Q 881 4594 1212 4672 
Q 1544 4750 1819 4750 
Q 2544 4750 2975 4387 
Q 3406 4025 3406 3419 
Q 3406 3131 3298 2873 
Q 3191 2616 2906 2266 
Q 2828 2175 2409 1742 
Q 1991 1309 1228 531 
z
" transform="scale(0.015625)"/>
        <path id="DejaVuSans-35" d="M 691 4666 
L 3169 4666 
L 3169 4134 
L 1269 4134 
L 1269 2991 
Q 1406 3038 1543 3061 
Q 1681 3084 1819 3084 
Q 2600 3084 3056 2656 
Q 3513 2228 3513 1497 
Q 3513 744 3044 326 
Q 2575 -91 1722 -91 
Q 1428 -91 1123 -41 
Q 819 9 494 109 
L 494 744 
Q 775 591 1075 516 
Q 1375 441 1709 441 
Q 2250 441 2565 725 
Q 2881 1009 2881 1497 
Q 2881 1984 2565 2268 
Q 2250 2553 1709 2553 
Q 1456 2553 1204 2497 
Q 953 2441 691 2322 
L 691 4666 
z
" transform="scale(0.015625)"/>
       </defs>
       <use xlink:href="#DejaVuSans-31"/>
       <use xlink:href="#DejaVuSans-32" x="63.623047"/>
       <use xlink:href="#DejaVuSans-35" x="127.246094"/>
      </g>
     </g>
    </g>
    <g id="xtick_2">
     <g id="line2d_2">
      <g>
       <use xlink:href="#m5b343a20d4" x="117.12" y="307.584" style="stroke: #000000; stroke-width: 0.8"/>
      </g>
     </g>
     <g id="text_2">
      <!-- 250 -->
      <g transform="translate(107.57625 322.182437) scale(0.1 -0.1)">
       <defs>
        <path id="DejaVuSans-30" d="M 2034 4250 
Q 1547 4250 1301 3770 
Q 1056 3291 1056 2328 
Q 1056 1369 1301 889 
Q 1547 409 2034 409 
Q 2525 409 2770 889 
Q 3016 1369 3016 2328 
Q 3016 3291 2770 3770 
Q 2525 4250 2034 4250 
z
M 2034 4750 
Q 2819 4750 3233 4129 
Q 3647 3509 3647 2328 
Q 3647 1150 3233 529 
Q 2819 -91 2034 -91 
Q 1250 -91 836 529 
Q 422 1150 422 2328 
Q 422 3509 836 4129 
Q 1250 4750 2034 4750 
z
" transform="scale(0.015625)"/>
       </defs>
       <use xlink:href="#DejaVuSans-32"/>
       <use xlink:href="#DejaVuSans-35" x="63.623047"/>
       <use xlink:href="#DejaVuSans-30" x="127.246094"/>
      </g>
     </g>
    </g>
    <g id="xtick_3">
     <g id="line2d_3">
      <g>
       <use xlink:href="#m5b343a20d4" x="176.64" y="307.584" style="stroke: #000000; stroke-width: 0.8"/>
      </g>
     </g>
     <g id="text_3">
      <!-- 500 -->
      <g transform="translate(167.09625 322.182437) scale(0.1 -0.1)">
       <use xlink:href="#DejaVuSans-35"/>
       <use xlink:href="#DejaVuSans-30" x="63.623047"/>
       <use xlink:href="#DejaVuSans-30" x="127.246094"/>
      </g>
     </g>
    </g>
    <g id="xtick_4">
     <g id="line2d_4">
      <g>
       <use xlink:href="#m5b343a20d4" x="236.16" y="307.584" style="stroke: #000000; stroke-width: 0.8"/>
      </g>
     </g>
     <g id="text_4">
      <!-- 1000 -->
      <g transform="translate(223.435 322.182437) scale(0.1 -0.1)">
       <use xlink:href="#DejaVuSans-31"/>
       <use xlink:href="#DejaVuSans-30" x="63.623047"/>
       <use xlink:href="#DejaVuSans-30" x="127.246094"/>
       <use xlink:href="#DejaVuSans-30" x="190.869141"/>
      </g>
     </g>
    </g>
    <g id="xtick_5">
     <g id="line2d_5">
      <g>
       <use xlink:href="#m5b343a20d4" x="295.68" y="307.584" style="stroke: #000000; stroke-width: 0.8"/>
      </g>
     </g>
     <g id="text_5">
      <!-- 2000 -->
      <g transform="translate(282.955 322.182437) scale(0.1 -0.1)">
       <use xlink:href="#DejaVuSans-32"/>
       <use xlink:href="#DejaVuSans-30" x="63.623047"/>
       <use xlink:href="#DejaVuSans-30" x="127.246094"/>
       <use xlink:href="#DejaVuSans-30" x="190.869141"/>
      </g>
     </g>
    </g>
    <g id="xtick_6">
     <g id="line2d_6">
      <g>
       <use xlink:href="#m5b343a20d4" x="355.2" y="307.584" style="stroke: #000000; stroke-width: 0.8"/>
      </g>
     </g>
     <g id="text_6">
      <!-- 4000 -->
      <g transform="translate(342.475 322.182437) scale(0.1 -0.1)">
       <defs>
        <path id="DejaVuSans-34" d="M 2419 4116 
L 825 1625 
L 2419 1625 
L 2419 4116 
z
M 2253 4666 
L 3047 4666 
L 3047 1625 
L 3713 1625 
L 3713 1100 
L 3047 1100 
L 3047 0 
L 2419 0 
L 2419 1100 
L 313 1100 
L 313 1709 
L 2253 4666 
z
" transform="scale(0.015625)"/>
       </defs>
       <use xlink:href="#DejaVuSans-34"/>
       <use xlink:href="#DejaVuSans-30" x="63.623047"/>
       <use xlink:href="#DejaVuSans-30" x="127.246094"/>
       <use xlink:href="#DejaVuSans-30" x="190.869141"/>
      </g>
     </g>
    </g>
    <g id="xtick_7">
     <g id="line2d_7">
      <g>
       <use xlink:href="#m5b343a20d4" x="414.72" y="307.584" style="stroke: #000000; stroke-width: 0.8"/>
      </g>
     </g>
     <g id="text_7">
      <!-- 8000 -->
      <g transform="translate(401.995 322.182437) scale(0.1 -0.1)">
       <defs>
        <path id="DejaVuSans-38" d="M 2034 2216 
Q 1584 2216 1326 1975 
Q 1069 1734 1069 1313 
Q 1069 891 1326 650 
Q 1584 409 2034 409 
Q 2484 409 2743 651 
Q 3003 894 3003 1313 
Q 3003 1734 2745 1975 
Q 2488 2216 2034 2216 
z
M 1403 2484 
Q 997 2584 770 2862 
Q 544 3141 544 3541 
Q 544 4100 942 4425 
Q 1341 4750 2034 4750 
Q 2731 4750 3128 4425 
Q 3525 4100 3525 3541 
Q 3525 3141 3298 2862 
Q 3072 2584 2669 2484 
Q 3125 2378 3379 2068 
Q 3634 1759 3634 1313 
Q 3634 634 3220 271 
Q 2806 -91 2034 -91 
Q 1263 -91 848 271 
Q 434 634 434 1313 
Q 434 1759 690 2068 
Q 947 2378 1403 2484 
z
M 1172 3481 
Q 1172 3119 1398 2916 
Q 1625 2713 2034 2713 
Q 2441 2713 2670 2916 
Q 2900 3119 2900 3481 
Q 2900 3844 2670 4047 
Q 2441 4250 2034 4250 
Q 1625 4250 1398 4047 
Q 1172 3844 1172 3481 
z
" transform="scale(0.015625)"/>
       </defs>
       <use xlink:href="#DejaVuSans-38"/>
       <use xlink:href="#DejaVuSans-30" x="63.623047"/>
       <use xlink:href="#DejaVuSans-30" x="127.246094"/>
       <use xlink:href="#DejaVuSans-30" x="190.869141"/>
      </g>
     </g>
    </g>
    <g id="xtick_8">
     <g id="line2d_8">
      <defs>
       <path id="m6848cf5441" d="M 0 0 
L 0 2 
" style="stroke: #000000; stroke-width: 0.6"/>
      </defs>
      <g>
       <use xlink:href="#m6848cf5441" x="97.95884" y="307.584" style="stroke: #000000; stroke-width: 0.6"/>
      </g>
     </g>
    </g>
    <g id="xtick_9">
     <g id="line2d_9">
      <g>
       <use xlink:href="#m6848cf5441" x="132.775808" y="307.584" style="stroke: #000000; stroke-width: 0.6"/>
      </g>
     </g>
    </g>
    <g id="xtick_10">
     <g id="line2d_10">
      <g>
       <use xlink:href="#m6848cf5441" x="157.47884" y="307.584" style="stroke: #000000; stroke-width: 0.6"/>
      </g>
     </g>
    </g>
    <g id="xtick_11">
     <g id="line2d_11">
      <g>
       <use xlink:href="#m6848cf5441" x="192.295808" y="307.584" style="stroke: #000000; stroke-width: 0.6"/>
      </g>
     </g>
    </g>
    <g id="xtick_12">
     <g id="line2d_12">
      <g>
       <use xlink:href="#m6848cf5441" x="205.532605" y="307.584" style="stroke: #000000; stroke-width: 0.6"/>
      </g>
     </g>
    </g>
    <g id="xtick_13">
     <g id="line2d_13">
      <g>
       <use xlink:href="#m6848cf5441" x="216.99884" y="307.584" style="stroke: #000000; stroke-width: 0.6"/>
      </g>
     </g>
    </g>
    <g id="xtick_14">
     <g id="line2d_14">
      <g>
       <use xlink:href="#m6848cf5441" x="227.112776" y="307.584" style="stroke: #000000; stroke-width: 0.6"/>
      </g>
     </g>
    </g>
    <g id="xtick_15">
     <g id="line2d_15">
      <g>
       <use xlink:href="#m6848cf5441" x="330.496968" y="307.584" style="stroke: #000000; stroke-width: 0.6"/>
      </g>
     </g>
    </g>
    <g id="xtick_16">
     <g id="line2d_16">
      <g>
       <use xlink:href="#m6848cf5441" x="374.36116" y="307.584" style="stroke: #000000; stroke-width: 0.6"/>
      </g>
     </g>
    </g>
    <g id="xtick_17">
     <g id="line2d_17">
      <g>
       <use xlink:href="#m6848cf5441" x="390.016968" y="307.584" style="stroke: #000000; stroke-width: 0.6"/>
      </g>
     </g>
    </g>
    <g id="xtick_18">
     <g id="line2d_18">
      <g>
       <use xlink:href="#m6848cf5441" x="403.253765" y="307.584" style="stroke: #000000; stroke-width: 0.6"/>
      </g>
     </g>
    </g>
    <g id="text_8">
     <!-- Frequency (Hz) -->
     <g transform="translate(198.455312 335.860562) scale(0.1 -0.1)">
      <defs>
       <path id="DejaVuSans-46" d="M 628 4666 
L 3309 4666 
L 3309 4134 
L 1259 4134 
L 1259 2759 
L 3109 2759 
L 3109 2228 
L 1259 2228 
L 1259 0 
L 628 0 
L 628 4666 
z
" transform="scale(0.015625)"/>
       <path id="DejaVuSans-72" d="M 2631 2963 
Q 2534 3019 2420 3045 
Q 2306 3072 2169 3072 
Q 1681 3072 1420 2755 
Q 1159 2438 1159 1844 
L 1159 0 
L 581 0 
L 581 3500 
L 1159 3500 
L 1159 2956 
Q 1341 3275 1631 3429 
Q 1922 3584 2338 3584 
Q 2397 3584 2469 3576 
Q 2541 3569 2628 3553 
L 2631 2963 
z
" transform="scale(0.015625)"/>
       <path id="DejaVuSans-65" d="M 3597 1894 
L 3597 1613 
L 953 1613 
Q 991 1019 1311 708 
Q 1631 397 2203 397 
Q 2534 397 2845 478 
Q 3156 559 3463 722 
L 3463 178 
Q 3153 47 2828 -22 
Q 2503 -91 2169 -91 
Q 1331 -91 842 396 
Q 353 884 353 1716 
Q 353 2575 817 3079 
Q 1281 3584 2069 3584 
Q 2775 3584 3186 3129 
Q 3597 2675 3597 1894 
z
M 3022 2063 
Q 3016 2534 2758 2815 
Q 2500 3097 2075 3097 
Q 1594 3097 1305 2825 
Q 1016 2553 972 2059 
L 3022 2063 
z
" transform="scale(0.015625)"/>
       <path id="DejaVuSans-71" d="M 947 1747 
Q 947 1113 1208 752 
Q 1469 391 1925 391 
Q 2381 391 2643 752 
Q 2906 1113 2906 1747 
Q 2906 2381 2643 2742 
Q 2381 3103 1925 3103 
Q 1469 3103 1208 2742 
Q 947 2381 947 1747 
z
M 2906 525 
Q 2725 213 2448 61 
Q 2172 -91 1784 -91 
Q 1150 -91 751 415 
Q 353 922 353 1747 
Q 353 2572 751 3078 
Q 1150 3584 1784 3584 
Q 2172 3584 2448 3432 
Q 2725 3281 2906 2969 
L 2906 3500 
L 3481 3500 
L 3481 -1331 
L 2906 -1331 
L 2906 525 
z
" transform="scale(0.015625)"/>
       <path id="DejaVuSans-75" d="M 544 1381 
L 544 3500 
L 1119 3500 
L 1119 1403 
Q 1119 906 1312 657 
Q 1506 409 1894 409 
Q 2359 409 2629 706 
Q 2900 1003 2900 1516 
L 2900 3500 
L 3475 3500 
L 3475 0 
L 2900 0 
L 2900 538 
Q 2691 219 2414 64 
Q 2138 -91 1772 -91 
Q 1169 -91 856 284 
Q 544 659 544 1381 
z
M 1991 3584 
L 1991 3584 
z
" transform="scale(0.015625)"/>
       <path id="DejaVuSans-6e" d="M 3513 2113 
L 3513 0 
L 2938 0 
L 2938 2094 
Q 2938 2591 2744 2837 
Q 2550 3084 2163 3084 
Q 1697 3084 1428 2787 
Q 1159 2491 1159 1978 
L 1159 0 
L 581 0 
L 581 3500 
L 1159 3500 
L 1159 2956 
Q 1366 3272 1645 3428 
Q 1925 3584 2291 3584 
Q 2894 3584 3203 3211 
Q 3513 2838 3513 2113 
z
" transform="scale(0.015625)"/>
       <path id="DejaVuSans-63" d="M 3122 3366 
L 3122 2828 
Q 2878 2963 2633 3030 
Q 2388 3097 2138 3097 
Q 1578 3097 1268 2742 
Q 959 2388 959 1747 
Q 959 1106 1268 751 
Q 1578 397 2138 397 
Q 2388 397 2633 464 
Q 2878 531 3122 666 
L 3122 134 
Q 2881 22 2623 -34 
Q 2366 -91 2075 -91 
Q 1284 -91 818 406 
Q 353 903 353 1747 
Q 353 2603 823 3093 
Q 1294 3584 2113 3584 
Q 2378 3584 2631 3529 
Q 2884 3475 3122 3366 
z
" transform="scale(0.015625)"/>
       <path id="DejaVuSans-79" d="M 2059 -325 
Q 1816 -950 1584 -1140 
Q 1353 -1331 966 -1331 
L 506 -1331 
L 506 -850 
L 844 -850 
Q 1081 -850 1212 -737 
Q 1344 -625 1503 -206 
L 1606 56 
L 191 3500 
L 800 3500 
L 1894 763 
L 2988 3500 
L 3597 3500 
L 2059 -325 
z
" transform="scale(0.015625)"/>
       <path id="DejaVuSans-20" transform="scale(0.015625)"/>
       <path id="DejaVuSans-28" d="M 1984 4856 
Q 1566 4138 1362 3434 
Q 1159 2731 1159 2009 
Q 1159 1288 1364 580 
Q 1569 -128 1984 -844 
L 1484 -844 
Q 1016 -109 783 600 
Q 550 1309 550 2009 
Q 550 2706 781 3412 
Q 1013 4119 1484 4856 
L 1984 4856 
z
" transform="scale(0.015625)"/>
       <path id="DejaVuSans-48" d="M 628 4666 
L 1259 4666 
L 1259 2753 
L 3553 2753 
L 3553 4666 
L 4184 4666 
L 4184 0 
L 3553 0 
L 3553 2222 
L 1259 2222 
L 1259 0 
L 628 0 
L 628 4666 
z
" transform="scale(0.015625)"/>
       <path id="DejaVuSans-7a" d="M 353 3500 
L 3084 3500 
L 3084 2975 
L 922 459 
L 3084 459 
L 3084 0 
L 275 0 
L 275 525 
L 2438 3041 
L 353 3041 
L 353 3500 
z
" transform="scale(0.015625)"/>
       <path id="DejaVuSans-29" d="M 513 4856 
L 1013 4856 
Q 1481 4119 1714 3412 
Q 1947 2706 1947 2009 
Q 1947 1309 1714 600 
Q 1481 -109 1013 -844 
L 513 -844 
Q 928 -128 1133 580 
Q 1338 1288 1338 2009 
Q 1338 2731 1133 3434 
Q 928 4138 513 4856 
z
" transform="scale(0.015625)"/>
      </defs>
      <use xlink:href="#DejaVuSans-46"/>
      <use xlink:href="#DejaVuSans-72" x="50.269531"/>
      <use xlink:href="#DejaVuSans-65" x="89.132812"/>
      <use xlink:href="#DejaVuSans-71" x="150.65625"/>
      <use xlink:href="#DejaVuSans-75" x="214.132812"/>
      <use xlink:href="#DejaVuSans-65" x="277.511719"/>
      <use xlink:href="#DejaVuSans-6e" x="339.035156"/>
      <use xlink:href="#DejaVuSans-63" x="402.414062"/>
      <use xlink:href="#DejaVuSans-79" x="457.394531"/>
      <use xlink:href="#DejaVuSans-20" x="516.574219"/>
      <use xlink:href="#DejaVuSans-28" x="548.361328"/>
      <use xlink:href="#DejaVuSans-48" x="587.375"/>
      <use xlink:href="#DejaVuSans-7a" x="662.570312"/>
      <use xlink:href="#DejaVuSans-29" x="715.060547"/>
     </g>
    </g>
   </g>
   <g id="matplotlib.axis_2">
    <g id="ytick_1">
     <g id="line2d_19">
      <defs>
       <path id="mac8732d9e1" d="M 0 0 
L -3.5 0 
" style="stroke: #000000; stroke-width: 0.8"/>
      </defs>
      <g>
       <use xlink:href="#mac8732d9e1" x="57.6" y="307.584" style="stroke: #000000; stroke-width: 0.8"/>
      </g>
     </g>
     <g id="text_9">
      <!-- 30 -->
      <g transform="translate(37.875 311.383219) scale(0.1 -0.1)">
       <defs>
        <path id="DejaVuSans-33" d="M 2597 2516 
Q 3050 2419 3304 2112 
Q 3559 1806 3559 1356 
Q 3559 666 3084 287 
Q 2609 -91 1734 -91 
Q 1441 -91 1130 -33 
Q 819 25 488 141 
L 488 750 
Q 750 597 1062 519 
Q 1375 441 1716 441 
Q 2309 441 2620 675 
Q 2931 909 2931 1356 
Q 2931 1769 2642 2001 
Q 2353 2234 1838 2234 
L 1294 2234 
L 1294 2753 
L 1863 2753 
Q 2328 2753 2575 2939 
Q 2822 3125 2822 3475 
Q 2822 3834 2567 4026 
Q 2313 4219 1838 4219 
Q 1578 4219 1281 4162 
Q 984 4106 628 3988 
L 628 4550 
Q 988 4650 1302 4700 
Q 1616 4750 1894 4750 
Q 2613 4750 3031 4423 
Q 3450 4097 3450 3541 
Q 3450 3153 3228 2886 
Q 3006 2619 2597 2516 
z
" transform="scale(0.015625)"/>
       </defs>
       <use xlink:href="#DejaVuSans-33"/>
       <use xlink:href="#DejaVuSans-30" x="63.623047"/>
      </g>
     </g>
    </g>
    <g id="ytick_2">
     <g id="line2d_20">
      <g>
       <use xlink:href="#mac8732d9e1" x="57.6" y="263.232" style="stroke: #000000; stroke-width: 0.8"/>
      </g>
     </g>
     <g id="text_10">
      <!-- 35 -->
      <g transform="translate(37.875 267.031219) scale(0.1 -0.1)">
       <use xlink:href="#DejaVuSans-33"/>
       <use xlink:href="#DejaVuSans-35" x="63.623047"/>
      </g>
     </g>
    </g>
    <g id="ytick_3">
     <g id="line2d_21">
      <g>
       <use xlink:href="#mac8732d9e1" x="57.6" y="218.88" style="stroke: #000000; stroke-width: 0.8"/>
      </g>
     </g>
     <g id="text_11">
      <!-- 40 -->
      <g transform="translate(37.875 222.679219) scale(0.1 -0.1)">
       <use xlink:href="#DejaVuSans-34"/>
       <use xlink:href="#DejaVuSans-30" x="63.623047"/>
      </g>
     </g>
    </g>
    <g id="ytick_4">
     <g id="line2d_22">
      <g>
       <use xlink:href="#mac8732d9e1" x="57.6" y="174.528" style="stroke: #000000; stroke-width: 0.8"/>
      </g>
     </g>
     <g id="text_12">
      <!-- 45 -->
      <g transform="translate(37.875 178.327219) scale(0.1 -0.1)">
       <use xlink:href="#DejaVuSans-34"/>
       <use xlink:href="#DejaVuSans-35" x="63.623047"/>
      </g>
     </g>
    </g>
    <g id="ytick_5">
     <g id="line2d_23">
      <g>
       <use xlink:href="#mac8732d9e1" x="57.6" y="130.176" style="stroke: #000000; stroke-width: 0.8"/>
      </g>
     </g>
     <g id="text_13">
      <!-- 50 -->
      <g transform="translate(37.875 133.975219) scale(0.1 -0.1)">
       <use xlink:href="#DejaVuSans-35"/>
       <use xlink:href="#DejaVuSans-30" x="63.623047"/>
      </g>
     </g>
    </g>
    <g id="ytick_6">
     <g id="line2d_24">
      <g>
       <use xlink:href="#mac8732d9e1" x="57.6" y="85.824" style="stroke: #000000; stroke-width: 0.8"/>
      </g>
     </g>
     <g id="text_14">
      <!-- 55 -->
      <g transform="translate(37.875 89.623219) scale(0.1 -0.1)">
       <use xlink:href="#DejaVuSans-35"/>
       <use xlink:href="#DejaVuSans-35" x="63.623047"/>
      </g>
     </g>
    </g>
    <g id="ytick_7">
     <g id="line2d_25">
      <g>
       <use xlink:href="#mac8732d9e1" x="57.6" y="41.472" style="stroke: #000000; stroke-width: 0.8"/>
      </g>
     </g>
     <g id="text_15">
      <!-- 60 -->
      <g transform="translate(37.875 45.271219) scale(0.1 -0.1)">
       <defs>
        <path id="DejaVuSans-36" d="M 2113 2584 
Q 1688 2584 1439 2293 
Q 1191 2003 1191 1497 
Q 1191 994 1439 701 
Q 1688 409 2113 409 
Q 2538 409 2786 701 
Q 3034 994 3034 1497 
Q 3034 2003 2786 2293 
Q 2538 2584 2113 2584 
z
M 3366 4563 
L 3366 3988 
Q 3128 4100 2886 4159 
Q 2644 4219 2406 4219 
Q 1781 4219 1451 3797 
Q 1122 3375 1075 2522 
Q 1259 2794 1537 2939 
Q 1816 3084 2150 3084 
Q 2853 3084 3261 2657 
Q 3669 2231 3669 1497 
Q 3669 778 3244 343 
Q 2819 -91 2113 -91 
Q 1303 -91 875 529 
Q 447 1150 447 2328 
Q 447 3434 972 4092 
Q 1497 4750 2381 4750 
Q 2619 4750 2861 4703 
Q 3103 4656 3366 4563 
z
" transform="scale(0.015625)"/>
       </defs>
       <use xlink:href="#DejaVuSans-36"/>
       <use xlink:href="#DejaVuSans-30" x="63.623047"/>
      </g>
     </g>
    </g>
    <g id="text_16">
     <!-- Loudness (dB) -->
     <g transform="translate(31.795312 210.178781) rotate(-90) scale(0.1 -0.1)">
      <defs>
       <path id="DejaVuSans-4c" d="M 628 4666 
L 1259 4666 
L 1259 531 
L 3531 531 
L 3531 0 
L 628 0 
L 628 4666 
z
" transform="scale(0.015625)"/>
       <path id="DejaVuSans-6f" d="M 1959 3097 
Q 1497 3097 1228 2736 
Q 959 2375 959 1747 
Q 959 1119 1226 758 
Q 1494 397 1959 397 
Q 2419 397 2687 759 
Q 2956 1122 2956 1747 
Q 2956 2369 2687 2733 
Q 2419 3097 1959 3097 
z
M 1959 3584 
Q 2709 3584 3137 3096 
Q 3566 2609 3566 1747 
Q 3566 888 3137 398 
Q 2709 -91 1959 -91 
Q 1206 -91 779 398 
Q 353 888 353 1747 
Q 353 2609 779 3096 
Q 1206 3584 1959 3584 
z
" transform="scale(0.015625)"/>
       <path id="DejaVuSans-64" d="M 2906 2969 
L 2906 4863 
L 3481 4863 
L 3481 0 
L 2906 0 
L 2906 525 
Q 2725 213 2448 61 
Q 2172 -91 1784 -91 
Q 1150 -91 751 415 
Q 353 922 353 1747 
Q 353 2572 751 3078 
Q 1150 3584 1784 3584 
Q 2172 3584 2448 3432 
Q 2725 3281 2906 2969 
z
M 947 1747 
Q 947 1113 1208 752 
Q 1469 391 1925 391 
Q 2381 391 2643 752 
Q 2906 1113 2906 1747 
Q 2906 2381 2643 2742 
Q 2381 3103 1925 3103 
Q 1469 3103 1208 2742 
Q 947 2381 947 1747 
z
" transform="scale(0.015625)"/>
       <path id="DejaVuSans-73" d="M 2834 3397 
L 2834 2853 
Q 2591 2978 2328 3040 
Q 2066 3103 1784 3103 
Q 1356 3103 1142 2972 
Q 928 2841 928 2578 
Q 928 2378 1081 2264 
Q 1234 2150 1697 2047 
L 1894 2003 
Q 2506 1872 2764 1633 
Q 3022 1394 3022 966 
Q 3022 478 2636 193 
Q 2250 -91 1575 -91 
Q 1294 -91 989 -36 
Q 684 19 347 128 
L 347 722 
Q 666 556 975 473 
Q 1284 391 1588 391 
Q 1994 391 2212 530 
Q 2431 669 2431 922 
Q 2431 1156 2273 1281 
Q 2116 1406 1581 1522 
L 1381 1569 
Q 847 1681 609 1914 
Q 372 2147 372 2553 
Q 372 3047 722 3315 
Q 1072 3584 1716 3584 
Q 2034 3584 2315 3537 
Q 2597 3491 2834 3397 
z
" transform="scale(0.015625)"/>
       <path id="DejaVuSans-42" d="M 1259 2228 
L 1259 519 
L 2272 519 
Q 2781 519 3026 730 
Q 3272 941 3272 1375 
Q 3272 1813 3026 2020 
Q 2781 2228 2272 2228 
L 1259 2228 
z
M 1259 4147 
L 1259 2741 
L 2194 2741 
Q 2656 2741 2882 2914 
Q 3109 3088 3109 3444 
Q 3109 3797 2882 3972 
Q 2656 4147 2194 4147 
L 1259 4147 
z
M 628 4666 
L 2241 4666 
Q 2963 4666 3353 4366 
Q 3744 4066 3744 3513 
Q 3744 3084 3544 2831 
Q 3344 2578 2956 2516 
Q 3422 2416 3680 2098 
Q 3938 1781 3938 1306 
Q 3938 681 3513 340 
Q 3088 0 2303 0 
L 628 0 
L 628 4666 
z
" transform="scale(0.015625)"/>
      </defs>
      <use xlink:href="#DejaVuSans-4c"/>
      <use xlink:href="#DejaVuSans-6f" x="53.962891"/>
      <use xlink:href="#DejaVuSans-75" x="115.144531"/>
      <use xlink:href="#DejaVuSans-64" x="178.523438"/>
      <use xlink:href="#DejaVuSans-6e" x="242"/>
      <use xlink:href="#DejaVuSans-65" x="305.378906"/>
      <use xlink:href="#DejaVuSans-73" x="366.902344"/>
      <use xlink:href="#DejaVuSans-73" x="419.001953"/>
      <use xlink:href="#DejaVuSans-20" x="471.101562"/>
      <use xlink:href="#DejaVuSans-28" x="502.888672"/>
      <use xlink:href="#DejaVuSans-64" x="541.902344"/>
      <use xlink:href="#DejaVuSans-42" x="605.378906"/>
      <use xlink:href="#DejaVuSans-29" x="673.982422"/>
     </g>
    </g>
   </g>
   <g id="line2d_26">
    <path d="M 376.061596 289.8432 
" clip-path="url(#p26ddc2c780)" style="fill: none"/>
    <defs>
     <path id="mca59eeb627" d="M -1.971865 -3.734463 
L -2.275934 -2.172175 
L -6.284759 -2.172175 
L -7.584919 4.468424 
Q -7.651325 4.8389 -7.68278 5.090544 
Q -7.714236 5.342187 -7.714236 5.48199 
Q -7.714236 6.181 -7.29483 6.49905 
Q -6.875423 6.8171 -5.945739 6.8171 
L -3.915114 6.8171 
L -4.254134 8.49822 
L -6.176413 8.49822 
Q -7.96588 8.49822 -8.846633 7.799209 
Q -9.723891 7.100199 -9.723891 5.681208 
Q -9.723891 5.429564 -9.692435 5.128989 
Q -9.66098 4.828415 -9.594574 4.468424 
L -8.294414 -2.172175 
L -10 -2.172175 
L -9.68195 -3.734463 
L -8.011315 -3.734463 
L -7.333275 -7.208545 
L -5.32362 -7.208545 
L -5.991175 -3.734463 
L -1.971865 -3.734463 
z
M 9.804277 1.113174 
L 8.371306 8.49822 
L 6.351165 8.49822 
L 7.784137 1.190065 
Q 7.881998 0.676293 7.934424 0.284847 
Q 7.990345 -0.110094 7.990345 -0.337273 
Q 7.990345 -1.256471 7.410166 -1.766749 
Q 6.833483 -2.280522 5.795452 -2.280522 
Q 4.177243 -2.280522 2.99242 -1.18657 
Q 1.807597 -0.096114 1.458092 1.714323 
L 0.136962 8.49822 
L -1.872693 8.49822 
L 1.437122 -8.49822 
L 3.446777 -8.49822 
L 2.146617 -1.812185 
Q 2.912034 -2.83973 4.100352 -3.433889 
Q 5.292165 -4.028048 6.602809 -4.028048 
Q 8.221018 -4.028048 9.108762 -3.154285 
Q 10 -2.280522 10 -0.697263 
Q 10 -0.305817 9.951069 0.14155 
Q 9.902139 0.588916 9.804277 1.113174 
z
" style="stroke: #ff0000"/>
    </defs>
    <g clip-path="url(#p26ddc2c780)">
     <use xlink:href="#mca59eeb627" x="376.061596" y="289.8432" style="fill: #ff0000; stroke: #ff0000"/>
    </g>
   </g>
   <g id="line2d_27">
    <path d="M 376.061596 236.6208 
" clip-path="url(#p26ddc2c780)" style="fill: none"/>
    <defs>
     <path id="m77639800f0" d="M 6.809252 -7.18585 
L 6.334694 -4.817415 
Q 5.342041 -5.361633 4.23619 -5.631565 
Q 3.134694 -5.90585 1.967891 -5.90585 
Q -0.008707 -5.90585 -1.145034 -5.23102 
Q -2.277007 -4.560544 -2.277007 -3.402449 
Q -2.277007 -2.057143 0.361361 -1.334422 
Q 0.565986 -1.282177 0.661769 -1.251701 
L 1.462857 -1.007891 
Q 3.966259 -0.315646 4.802177 0.446259 
Q 5.638095 1.208163 5.638095 2.527347 
Q 5.638095 4.952381 3.713741 6.47619 
Q 1.789388 8 -1.327891 8 
Q -2.538231 8 -3.870476 7.764898 
Q -5.202721 7.53415 -6.809252 7.046531 
L -6.321633 4.460408 
Q -4.94585 5.170068 -3.613605 5.535782 
Q -2.277007 5.901497 -1.053605 5.901497 
Q 0.783673 5.901497 1.933061 5.113469 
Q 3.082449 4.325442 3.082449 3.115102 
Q 3.082449 1.80898 0.060952 1.003537 
L -0.195918 0.938231 
L -1.053605 0.720544 
Q -2.960544 0.21551 -3.844354 -0.607347 
Q -4.728163 -1.430204 -4.728163 -2.710204 
Q -4.728163 -5.143946 -2.899592 -6.571973 
Q -1.066667 -8 2.076735 -8 
Q 3.313197 -8 4.488707 -7.795374 
Q 5.668571 -7.595102 6.809252 -7.18585 
z
" style="stroke: #ff0000"/>
    </defs>
    <g clip-path="url(#p26ddc2c780)">
     <use xlink:href="#m77639800f0" x="376.061596" y="236.6208" style="fill: #ff0000; stroke: #ff0000"/>
    </g>
   </g>
   <g id="line2d_28">
    <path d="M 367.201247 263.232 
" clip-path="url(#p26ddc2c780)" style="fill: none"/>
    <defs>
     <path id="m0ad3a7b310" d="M 5.397903 -10 
L 5.027761 -8.030023 
L 2.765782 -8.030023 
Q 1.478511 -8.030023 0.89451 -7.524162 
Q 0.310508 -7.018301 0.026732 -5.665227 
L -0.228254 -4.394407 
L 3.666461 -4.394407 
L 3.316883 -2.556035 
L -0.577833 -2.556035 
L -3.016656 10 
L -5.397903 10 
L -2.942628 -2.556035 
L -5.204606 -2.556035 
L -4.867366 -4.394407 
L -2.605388 -4.394407 
L -2.416204 -5.397903 
Q -1.926794 -7.943656 -0.701213 -8.971828 
Q 0.52848 -10 3.164713 -10 
L 5.397903 -10 
z
" style="stroke: #ff0000"/>
    </defs>
    <g clip-path="url(#p26ddc2c780)">
     <use xlink:href="#m0ad3a7b310" x="367.201247" y="263.232" style="fill: #ff0000; stroke: #ff0000"/>
    </g>
   </g>
   <g id="line2d_29">
    <path d="M 336.03884 218.88 
" clip-path="url(#p26ddc2c780)" style="fill: none"/>
    <defs>
     <path id="ma5ce44e804" d="M -3.69525 -10 
L -1.330454 -10 
L -3.592433 1.659469 
L 4.517787 -4.394407 
L 7.589965 -4.394407 
L -1.457948 2.494345 
L 5.147029 10 
L 2.280485 10 
L -3.86387 2.971417 
L -5.22517 10 
L -7.589965 10 
L -3.69525 -10 
z
" style="stroke: #00bfbf"/>
    </defs>
    <g clip-path="url(#p26ddc2c780)">
     <use xlink:href="#ma5ce44e804" x="336.03884" y="218.88" style="fill: #00bfbf; stroke: #00bfbf"/>
    </g>
   </g>
   <g id="line2d_30">
    <path d="M 299.869573 210.0096 
" clip-path="url(#p26ddc2c780)" style="fill: none"/>
    <defs>
     <path id="mfcbc6c489a" d="M 4.760936 -3.770295 
Q 4.760936 -5.454934 4.028484 -6.344863 
Q 3.296033 -7.238454 1.922686 -7.238454 
Q 0.985148 -7.238454 0.131841 -6.758698 
Q -0.721465 -6.278942 -1.384334 -5.363377 
Q -2.036216 -4.4588 -2.428077 -3.177009 
Q -2.816277 -1.895219 -2.816277 -0.635402 
Q -2.816277 0.965005 -2.083825 1.829298 
Q -1.351373 2.693591 0 2.693591 
Q 0.996134 2.693591 1.84944 2.224822 
Q 2.702747 1.756053 3.307019 0.862462 
Q 3.958901 -0.075076 4.358087 -1.34588 
Q 4.760936 -2.616684 4.760936 -3.770295 
z
M -1.761546 -6.747711 
Q -0.915565 -7.857375 0.234385 -8.428688 
Q 1.384334 -9 2.794303 -9 
Q 4.760936 -9 5.848627 -7.710885 
Q 6.936317 -6.425432 6.936317 -4.103561 
Q 6.936317 -2.202848 6.2588 -0.481587 
Q 5.584944 1.239674 4.31414 2.602035 
Q 3.468159 3.506612 2.402442 3.982706 
Q 1.340387 4.4588 0.161139 4.4588 
Q -1.201221 4.4588 -2.127772 3.89115 
Q -3.054323 3.323499 -3.512106 2.202848 
L -4.830519 9 
L -6.936317 9 
L -3.490132 -8.69237 
L -1.384334 -8.69237 
L -1.761546 -6.747711 
z
" style="stroke: #00bfbf"/>
    </defs>
    <g clip-path="url(#p26ddc2c780)">
     <use xlink:href="#mfcbc6c489a" x="299.869573" y="210.0096" style="fill: #00bfbf; stroke: #00bfbf"/>
    </g>
   </g>
   <g id="line2d_31">
    <path d="M 299.869573 174.528 
" clip-path="url(#p26ddc2c780)" style="fill: none"/>
    <defs>
     <path id="mbf58fb229a" d="M 6.755089 1.309891 
L 5.068888 10 
L 2.691754 10 
L 4.377956 1.40037 
Q 4.493111 0.795805 4.554802 0.335184 
Q 4.620605 -0.12955 4.620605 -0.396874 
Q 4.620605 -1.478511 3.937898 -2.078964 
Q 3.259305 -2.683529 2.037837 -2.683529 
Q 0.133662 -2.683529 -1.260539 -1.396257 
Q -2.65474 -0.113099 -3.066009 2.017273 
L -4.620605 10 
L -6.9854 10 
L -3.090685 -10 
L -0.725889 -10 
L -2.255809 -2.132429 
Q -1.355131 -3.341559 0.043183 -4.040716 
Q 1.44561 -4.739873 2.987868 -4.739873 
Q 4.892042 -4.739873 5.936665 -3.711701 
Q 6.9854 -2.683529 6.9854 -0.820481 
Q 6.9854 -0.35986 6.927822 0.166564 
Q 6.870245 0.692988 6.755089 1.309891 
z
" style="stroke: #00bfbf"/>
    </defs>
    <g clip-path="url(#p26ddc2c780)">
     <use xlink:href="#mbf58fb229a" x="299.869573" y="174.528" style="fill: #00bfbf; stroke: #00bfbf"/>
    </g>
   </g>
   <g id="line2d_32">
    <path d="M 299.869573 139.0464 
" clip-path="url(#p26ddc2c780)" style="fill: none"/>
    <defs>
     <path id="ma21cec7373" d="M 6.610376 -8.69237 
L 4.424008 2.536114 
Q 3.7941 5.795524 2.014242 7.395931 
Q 0.234385 9 -2.775992 9 
Q -3.885656 9 -4.837843 8.835198 
Q -5.786368 8.670397 -6.610376 8.326144 
L -6.218515 6.278942 
Q -5.442116 6.780671 -4.574161 7.018718 
Q -3.702543 7.260427 -2.717396 7.260427 
Q -0.71414 7.260427 0.571312 6.165412 
Q 1.860427 5.074059 2.2706 3.026857 
L 2.453713 2.063683 
Q 1.574771 3.070804 0.406511 3.598169 
Q -0.76175 4.125534 -2.113123 4.125534 
Q -4.057782 4.125534 -5.174771 2.840081 
Q -6.288098 1.550966 -6.288098 -0.704985 
Q -6.288098 -2.477518 -5.614242 -4.176806 
Q -4.936724 -5.876094 -3.71353 -7.194507 
Q -2.900509 -8.062462 -1.820142 -8.531231 
Q -0.739776 -9 0.439471 -9 
Q 1.732248 -9 2.69176 -8.39939 
Q 3.654934 -7.798779 4.127365 -6.700102 
L 4.493591 -8.69237 
L 6.610376 -8.69237 
z
M 3.438861 -3.990031 
Q 3.438861 -5.54649 2.706409 -6.392472 
Q 1.973957 -7.238454 0.622584 -7.238454 
Q -0.212411 -7.238454 -0.966836 -6.905188 
Q -1.721261 -6.575585 -2.259613 -5.978637 
Q -3.131231 -4.997152 -3.618311 -3.66409 
Q -4.101729 -2.331027 -4.101729 -0.910071 
Q -4.101729 0.668362 -3.365615 1.518006 
Q -2.625839 2.363988 -1.241506 2.363988 
Q 0.76175 2.363988 2.098474 0.55117 
Q 3.438861 -1.26531 3.438861 -3.990031 
z
" style="stroke: #00bfbf"/>
    </defs>
    <g clip-path="url(#p26ddc2c780)">
     <use xlink:href="#ma21cec7373" x="299.869573" y="139.0464" style="fill: #00bfbf; stroke: #00bfbf"/>
    </g>
   </g>
   <g id="line2d_33">
    <path d="M 276.51884 147.9168 
" clip-path="url(#p26ddc2c780)" style="fill: none"/>
    <defs>
     <path id="m7b79a803a8" d="M -1.003834 -3.435206 
L -1.406945 -1.440684 
Q -2.132545 -1.96648 -2.949283 -2.229379 
Q -3.762515 -2.492277 -4.638843 -2.492277 
Q -5.602804 -2.492277 -6.475627 -2.152262 
Q -7.344945 -1.812247 -7.937343 -1.188301 
Q -8.880272 -0.234856 -9.395553 1.048089 
Q -9.907328 2.327528 -9.907328 3.698105 
Q -9.907328 5.352613 -9.080074 6.16234 
Q -8.252821 6.972067 -6.566765 6.972067 
Q -5.736006 6.972067 -4.800088 6.719685 
Q -3.860664 6.467302 -2.844123 5.966042 
L -3.226202 7.95706 
Q -4.10253 8.318107 -5.027933 8.500383 
Q -5.953336 8.68266 -6.927812 8.68266 
Q -9.371015 8.68266 -10.685508 7.462811 
Q -12 6.239457 -12 3.971519 
Q -12 2.064629 -11.316464 0.459196 
Q -10.632928 -1.146237 -9.283383 -2.425676 
Q -8.364991 -3.302005 -7.127615 -3.750685 
Q -5.886735 -4.199365 -4.421514 -4.199365 
Q -3.566218 -4.199365 -2.724942 -4.006572 
Q -1.880162 -3.817286 -1.003834 -3.435206 
z
M 11.803702 0.95695 
L 10.366524 8.363676 
L 8.340453 8.363676 
L 9.777632 1.034067 
Q 9.87578 0.518786 9.92836 0.126191 
Q 9.984445 -0.269909 9.984445 -0.497754 
Q 9.984445 -1.419652 9.402563 -1.931427 
Q 8.824187 -2.446708 7.783109 -2.446708 
Q 6.160149 -2.446708 4.971848 -1.349545 
Q 3.783547 -0.255888 3.433016 1.559864 
L 2.108007 8.363676 
L 0.092453 8.363676 
L 3.411984 -8.68266 
L 5.427539 -8.68266 
L 4.123562 -1.976996 
Q 4.891226 -3.007558 6.083032 -3.603461 
Q 7.278344 -4.199365 8.592836 -4.199365 
Q 10.215796 -4.199365 11.106145 -3.323036 
Q 12 -2.446708 12 -0.858802 
Q 12 -0.466207 11.950926 -0.017527 
Q 11.901851 0.431153 11.803702 0.95695 
z
" style="stroke: #00bfbf"/>
    </defs>
    <g clip-path="url(#p26ddc2c780)">
     <use xlink:href="#m7b79a803a8" x="276.51884" y="147.9168" style="fill: #00bfbf; stroke: #00bfbf"/>
    </g>
   </g>
   <g id="line2d_34">
    <path d="M 276.51884 112.4352 
" clip-path="url(#p26ddc2c780)" style="fill: none"/>
    <defs>
     <path id="mfe7e3e08bd" d="M -1.095306 -3.524503 
L -1.475297 -1.628034 
Q -2.270141 -2.063804 -3.155624 -2.279946 
Q -4.037621 -2.499573 -4.971911 -2.499573 
Q -6.554626 -2.499573 -7.464512 -1.959219 
Q -8.370912 -1.422351 -8.370912 -0.495034 
Q -8.370912 0.582188 -6.258302 1.16089 
Q -6.094453 1.202724 -6.017758 1.227127 
L -5.376305 1.422351 
Q -3.371766 1.97665 -2.702424 2.586727 
Q -2.033082 3.196804 -2.033082 4.253109 
Q -2.033082 6.194898 -3.573963 7.415052 
Q -5.114843 8.635207 -7.610931 8.635207 
Q -8.580082 8.635207 -9.646845 8.446954 
Q -10.713609 8.262188 -12 7.871739 
L -11.609551 5.800962 
Q -10.507926 6.369206 -9.441162 6.662043 
Q -8.370912 6.95488 -7.391303 6.95488 
Q -5.920145 6.95488 -4.9998 6.323886 
Q -4.079455 5.692892 -4.079455 4.72374 
Q -4.079455 3.677894 -6.498847 3.032955 
L -6.70453 2.980663 
L -7.391303 2.806355 
Q -8.918239 2.401961 -9.625928 1.743078 
Q -10.333618 1.084194 -10.333618 0.059265 
Q -10.333618 -1.889496 -8.869433 -3.032955 
Q -7.401761 -4.176414 -4.884757 -4.176414 
Q -3.894689 -4.176414 -2.953427 -4.012565 
Q -2.008679 -3.852202 -1.095306 -3.524503 
z
M 11.804775 0.95172 
L 10.375452 8.317966 
L 8.360454 8.317966 
L 9.789778 1.028416 
Q 9.88739 0.515951 9.939682 0.125502 
Q 9.995461 -0.268434 9.995461 -0.495034 
Q 9.995461 -1.411893 9.416759 -1.920872 
Q 8.841543 -2.433336 7.806155 -2.433336 
Q 6.192065 -2.433336 5.010259 -1.34217 
Q 3.828452 -0.254489 3.479837 1.551339 
L 2.16207 8.317966 
L 0.157531 8.317966 
L 3.45892 -8.635207 
L 5.463459 -8.635207 
L 4.166609 -1.966192 
Q 4.930077 -2.991121 6.11537 -3.583768 
Q 7.304149 -4.176414 8.611457 -4.176414 
Q 10.225547 -4.176414 11.11103 -3.304875 
Q 12 -2.433336 12 -0.854108 
Q 12 -0.463659 11.951194 -0.017431 
Q 11.902388 0.428797 11.804775 0.95172 
z
" style="stroke: #00bfbf"/>
    </defs>
    <g clip-path="url(#p26ddc2c780)">
     <use xlink:href="#mfe7e3e08bd" x="276.51884" y="112.4352" style="fill: #00bfbf; stroke: #00bfbf"/>
    </g>
   </g>
   <g id="line2d_35">
    <path d="M 211.456968 201.1392 
" clip-path="url(#p26ddc2c780)" style="fill: none"/>
    <defs>
     <path id="mc355f071ac" d="M -7.304929 1.410192 
L -5.47814 -8 
L -2.902813 -8 
L -4.729602 1.316625 
Q -4.867725 1.998329 -4.930103 2.483988 
Q -4.992481 2.969646 -4.992481 3.290448 
Q -4.992481 4.475634 -4.270677 5.126149 
Q -3.544417 5.772208 -2.221108 5.772208 
Q -0.162629 5.772208 1.338903 4.382066 
Q 2.84489 2.987469 3.303815 0.630465 
L 5.019215 -8 
L 7.581175 -8 
L 4.56029 7.594542 
L 1.998329 7.594542 
L 2.510721 5.143971 
Q 1.428014 6.50738 -0.069062 7.255918 
Q -1.566138 8 -3.250348 8 
Q -5.299916 8 -6.440546 6.877193 
Q -7.581175 5.754386 -7.581175 3.749373 
Q -7.581175 3.335004 -7.514341 2.706767 
Q -7.443052 2.07853 -7.304929 1.410192 
z
" style="stroke: #00bfbf"/>
    </defs>
    <g clip-path="url(#p26ddc2c780)">
     <use xlink:href="#mc355f071ac" x="211.456968" y="201.1392" style="fill: #00bfbf; stroke: #00bfbf"/>
    </g>
   </g>
   <g id="line2d_36">
    <path d="M 199.169012 156.7872 
" clip-path="url(#p26ddc2c780)" style="fill: none"/>
    <defs>
     <path id="m077f173985" d="M -1.449796 8 
Q -4.131701 8 -5.69034 6.345578 
Q -7.244626 4.691156 -7.244626 1.835102 
Q -7.244626 0.176327 -6.709116 -1.543401 
Q -6.169252 -3.267483 -5.311565 -4.438639 
Q -3.966259 -6.258503 -2.307483 -7.129252 
Q -0.648707 -8 1.449796 -8 
Q 4.04898 -8 5.646803 -6.380408 
Q 7.244626 -4.76517 7.244626 -2.152925 
Q 7.244626 -0.341769 6.713469 1.456327 
Q 6.182313 3.250068 5.324626 4.434286 
Q 3.992381 6.258503 2.333605 7.129252 
Q 0.67483 8 -1.449796 8 
z
M -4.645442 1.752381 
Q -4.645442 3.820408 -3.783401 4.847891 
Q -2.917007 5.875374 -1.162449 5.875374 
Q 1.354014 5.875374 3.004082 3.681088 
Q 4.658503 1.482449 4.658503 -1.891701 
Q 4.658503 -3.863946 3.774694 -4.86966 
Q 2.890884 -5.879728 1.17551 -5.879728 
Q -0.239456 -5.879728 -1.340952 -5.217959 
Q -2.442449 -4.560544 -3.313197 -3.210884 
Q -3.953197 -2.20517 -4.301497 -0.912109 
Q -4.645442 0.380952 -4.645442 1.752381 
z
" style="stroke: #00bfbf"/>
    </defs>
    <g clip-path="url(#p26ddc2c780)">
     <use xlink:href="#m077f173985" x="199.169012" y="156.7872" style="fill: #00bfbf; stroke: #00bfbf"/>
    </g>
   </g>
   <g id="line2d_37">
    <path d="M 199.169012 94.6944 
" clip-path="url(#p26ddc2c780)" style="fill: none"/>
    <defs>
     <path id="m05d8e978ad" d="M 5.620536 -5.254464 
Q 5.232143 -5.464286 4.727679 -5.575893 
Q 4.227679 -5.6875 3.65625 -5.6875 
Q 1.602679 -5.6875 0.066964 -4.129464 
Q -1.464286 -2.575893 -1.96875 0.035714 
L -3.544643 8 
L -6.111607 8 
L -3.058036 -7.625 
L -0.491071 -7.625 
L -0.977679 -5.196429 
Q 0.040179 -6.549107 1.455357 -7.272321 
Q 2.875 -8 4.477679 -8 
Q 4.897321 -8 5.299107 -7.950893 
Q 5.705357 -7.90625 6.111607 -7.794643 
L 5.620536 -5.254464 
z
" style="stroke: #00bfbf"/>
    </defs>
    <g clip-path="url(#p26ddc2c780)">
     <use xlink:href="#m05d8e978ad" x="199.169012" y="94.6944" style="fill: #00bfbf; stroke: #00bfbf"/>
    </g>
   </g>
   <g id="line2d_38">
    <path d="M 174.90521 147.9168 
" clip-path="url(#p26ddc2c780)" style="fill: none"/>
    <defs>
     <path id="m5d1d8a1da4" d="M 6.776599 -1.090612 
L 5.074286 7.60381 
L 2.570884 7.60381 
L 3.032381 5.291973 
Q 1.930884 6.65034 0.520272 7.32517 
Q -0.885986 8 -2.614422 8 
Q -4.560544 8 -5.805714 6.811429 
Q -7.046531 5.618503 -7.046531 3.755102 
Q -7.046531 1.086259 -4.917551 -0.463673 
Q -2.788571 -2.013605 0.951293 -2.013605 
L 4.434286 -2.013605 
L 4.569252 -2.684082 
Q 4.599728 -2.792925 4.612789 -2.919184 
Q 4.62585 -3.049796 4.62585 -3.319728 
Q 4.62585 -4.534422 3.637551 -5.204898 
Q 2.653605 -5.879728 0.868571 -5.879728 
Q -0.35483 -5.879728 -1.643537 -5.566259 
Q -2.927891 -5.252789 -4.286259 -4.62585 
L -3.850884 -6.942041 
Q -2.435918 -7.473197 -1.081905 -7.734422 
Q 0.272109 -8 1.534694 -8 
Q 4.22966 -8 5.635918 -6.828844 
Q 7.046531 -5.662041 7.046531 -3.428571 
Q 7.046531 -2.980136 6.976871 -2.374966 
Q 6.911565 -1.769796 6.776599 -1.090612 
z
M 4.068571 -0.054422 
L 1.56517 -0.054422 
Q -1.512925 -0.054422 -2.988844 0.768435 
Q -4.464762 1.591293 -4.464762 3.319728 
Q -4.464762 4.517007 -3.711565 5.19619 
Q -2.954014 5.875374 -1.621769 5.875374 
Q 0.420136 5.875374 1.943946 4.412517 
Q 3.467755 2.94966 3.959728 0.502857 
L 4.068571 -0.054422 
z
" style="stroke: #00bfbf"/>
    </defs>
    <g clip-path="url(#p26ddc2c780)">
     <use xlink:href="#m5d1d8a1da4" x="174.90521" y="147.9168" style="fill: #00bfbf; stroke: #00bfbf"/>
    </g>
   </g>
   <g id="line2d_39">
    <path d="M 174.90521 94.6944 
" clip-path="url(#p26ddc2c780)" style="fill: none"/>
    <defs>
     <path id="mdec78f1949" d="M 0.688464 -9 
L 2.81678 -9 
L -0.688464 9 
L -2.81678 9 
L 0.688464 -9 
z
" style="stroke: #00bfbf"/>
    </defs>
    <g clip-path="url(#p26ddc2c780)">
     <use xlink:href="#mdec78f1949" x="174.90521" y="94.6944" style="fill: #00bfbf; stroke: #00bfbf"/>
    </g>
   </g>
   <g id="line2d_40">
    <path d="M 157.47884 245.4912 
" clip-path="url(#p26ddc2c780)" style="fill: none"/>
    <defs>
     <path id="mc3ee610636" d="M -6.814 -7 
L -4.374 -7 
L -2.326 4.9 
L 4.374 -7 
L 6.814 -7 
L -1.15 7 
L -4.25 7 
L -6.814 -7 
z
" style="stroke: #00bfbf"/>
    </defs>
    <g clip-path="url(#p26ddc2c780)">
     <use xlink:href="#mc3ee610636" x="157.47884" y="245.4912" style="fill: #00bfbf; stroke: #00bfbf"/>
    </g>
   </g>
   <g id="line2d_41">
    <path d="M 157.47884 210.0096 
" clip-path="url(#p26ddc2c780)" style="fill: none"/>
    <defs>
     <path id="me877f9b3d6" d="M 4.74566 1.001211 
Q 4.74566 -0.827614 3.905935 -1.861122 
Q 3.066209 -2.894631 1.592652 -2.894631 
Q 0.518773 -2.894631 -0.421881 -2.369802 
Q -1.362535 -1.849011 -2.056924 -0.851837 
Q -2.787646 0.193783 -3.211546 1.578522 
Q -3.631409 2.959225 -3.631409 4.331853 
Q -3.631409 6.075898 -2.807832 7.064998 
Q -1.980218 8.054098 -0.526847 8.054098 
Q 0.567218 8.054098 1.499798 7.545418 
Q 2.436415 7.032701 3.142915 6.035527 
Q 3.861526 5.002019 4.301574 3.62939 
Q 4.74566 2.252725 4.74566 1.001211 
z
M -2.472749 -2.353654 
Q -1.612838 -3.512313 -0.320953 -4.174405 
Q 0.970933 -4.836496 2.383932 -4.836496 
Q 4.555914 -4.836496 5.835688 -3.371013 
Q 7.115462 -1.909568 7.115462 0.585386 
Q 7.115462 2.632216 6.364554 4.549859 
Q 5.613646 6.467501 4.228906 7.953169 
Q 3.320549 8.938232 2.133629 9.471134 
Q 0.94671 10 -0.35325 10 
Q -1.725878 10 -2.735164 9.370206 
Q -3.744449 8.736375 -4.37828 7.488898 
L -4.794106 9.63262 
L -7.115462 9.63262 
L -3.292289 -10 
L -0.970933 -10 
L -2.472749 -2.353654 
z
" style="stroke: #00bfbf"/>
    </defs>
    <g clip-path="url(#p26ddc2c780)">
     <use xlink:href="#me877f9b3d6" x="157.47884" y="210.0096" style="fill: #00bfbf; stroke: #00bfbf"/>
    </g>
   </g>
   <g id="line2d_42">
    <path d="M 157.47884 174.528 
" clip-path="url(#p26ddc2c780)" style="fill: none"/>
    <defs>
     <path id="mad5089b2d7" d="M 1.947921 7.513121 
Q 1.015341 8.736375 -0.260396 9.370206 
Q -1.532095 10 -3.086395 10 
Q -5.205894 10 -6.437222 8.554703 
Q -7.664514 7.109407 -7.664514 4.598304 
Q -7.664514 2.503028 -6.921679 0.605571 
Q -6.174808 -1.291885 -4.761809 -2.793702 
Q -3.829229 -3.790876 -2.658458 -4.311667 
Q -1.48365 -4.836496 -0.195801 -4.836496 
Q 1.164715 -4.836496 2.206298 -4.178442 
Q 3.247881 -3.524425 3.817117 -2.301171 
L 5.331046 -10 
L 7.664514 -10 
L 3.84134 9.63262 
L 1.507872 9.63262 
L 1.947921 7.513121 
z
M -5.25434 4.182479 
Q -5.25434 6.011304 -4.430763 7.032701 
Q -3.603149 8.054098 -2.137667 8.054098 
Q -1.055713 8.054098 -0.12717 7.533306 
Q 0.801373 7.008478 1.507872 5.987081 
Q 2.250706 4.925313 2.678644 3.540573 
Q 3.110618 2.151797 3.110618 0.799354 
Q 3.110618 -0.952765 2.283004 -1.933791 
Q 1.45539 -2.918853 0.006056 -2.918853 
Q -1.092047 -2.918853 -2.040775 -2.402099 
Q -2.985466 -1.885345 -3.651595 -0.916431 
Q -4.386354 0.133226 -4.822366 1.522002 
Q -5.25434 2.906742 -5.25434 4.182479 
z
" style="stroke: #00bfbf"/>
    </defs>
    <g clip-path="url(#p26ddc2c780)">
     <use xlink:href="#mad5089b2d7" x="157.47884" y="174.528" style="fill: #00bfbf; stroke: #00bfbf"/>
    </g>
   </g>
   <g id="line2d_43">
    <path d="M 146.012605 147.9168 
" clip-path="url(#p26ddc2c780)" style="fill: none"/>
    <defs>
     <path id="m298d3817db" d="M 10.802584 -1.267408 
L 9.187724 7.075377 
L 6.917444 7.075377 
L 8.508615 -1.192391 
Q 8.607322 -1.721464 8.654702 -2.104451 
Q 8.70603 -2.487437 8.70603 -2.759871 
Q 8.70603 -3.869347 8.086145 -4.485284 
Q 7.470208 -5.10122 6.360732 -5.10122 
Q 4.706389 -5.10122 3.411342 -3.86145 
Q 2.116296 -2.62168 1.733309 -0.635678 
L 0.217157 7.075377 
L -2.053123 7.075377 
L -0.438263 -1.192391 
Q -0.339555 -1.646447 -0.292175 -2.033381 
Q -0.240847 -2.424264 -0.240847 -2.732233 
Q -0.240847 -3.857502 -0.856784 -4.477387 
Q -1.472721 -5.10122 -2.558507 -5.10122 
Q -4.23654 -5.10122 -5.535535 -3.86145 
Q -6.830581 -2.62168 -7.213568 -0.635678 
L -8.72972 7.075377 
L -11 7.075377 
L -8.299354 -6.743719 
L -6.029074 -6.743719 
L -6.45944 -4.595836 
Q -5.535535 -5.807968 -4.295765 -6.439698 
Q -3.052046 -7.075377 -1.634602 -7.075377 
Q -0.130294 -7.075377 0.837042 -6.285714 
Q 1.808327 -5.496052 2.005743 -4.090452 
Q 3.040201 -5.54738 4.402369 -6.309404 
Q 5.768485 -7.075377 7.284637 -7.075377 
Q 9.061378 -7.075377 10.028715 -6.052764 
Q 11 -5.030151 11 -3.154702 
Q 11 -2.748026 10.948672 -2.258435 
Q 10.901292 -1.772793 10.802584 -1.267408 
z
" style="stroke: #00bfbf"/>
    </defs>
    <g clip-path="url(#p26ddc2c780)">
     <use xlink:href="#m298d3817db" x="146.012605" y="147.9168" style="fill: #00bfbf; stroke: #00bfbf"/>
    </g>
   </g>
   <g id="line2d_44">
    <path d="M 139.649012 76.9536 
" clip-path="url(#p26ddc2c780)" style="fill: none"/>
    <defs>
     <path id="md804711d9a" d="M 7.332589 -1.433036 
L 5.502232 8 
L 2.921875 8 
L 4.752232 -1.334821 
Q 4.877232 -1.991071 4.944196 -2.491071 
Q 5.015625 -2.995536 5.015625 -3.285714 
Q 5.015625 -4.459821 4.274554 -5.111607 
Q 3.537946 -5.767857 2.212054 -5.767857 
Q 0.145089 -5.767857 -1.345982 -4.392857 
Q -2.837054 -3.022321 -3.301339 -0.665179 
L -5.015625 8 
L -7.582589 8 
L -4.555804 -7.625 
L -1.988839 -7.625 
L -2.502232 -5.169643 
Q -1.430804 -6.522321 0.073661 -7.258929 
Q 1.582589 -8 3.243304 -8 
Q 5.310268 -8 6.444196 -6.883929 
Q 7.582589 -5.767857 7.582589 -3.745536 
Q 7.582589 -3.245536 7.520089 -2.674107 
Q 7.457589 -2.102679 7.332589 -1.433036 
z
" style="stroke: #00bfbf"/>
    </defs>
    <g clip-path="url(#p26ddc2c780)">
     <use xlink:href="#md804711d9a" x="139.649012" y="76.9536" style="fill: #00bfbf; stroke: #00bfbf"/>
    </g>
   </g>
   <g id="line2d_45">
    <path d="M 125.30421 156.7872 
" clip-path="url(#p26ddc2c780)" style="fill: none"/>
    <defs>
     <path id="m5b618d06b8" d="M -4.498286 -8 
L 7.986286 -8 
L 7.515429 -5.6 
L -4.525714 5.901714 
L 5.417143 5.901714 
L 5.001143 8 
L -7.986286 8 
L -7.515429 5.6 
L 4.530286 -5.901714 
L -4.914286 -5.901714 
L -4.498286 -8 
z
" style="stroke: #00bfbf"/>
    </defs>
    <g clip-path="url(#p26ddc2c780)">
     <use xlink:href="#m5b618d06b8" x="125.30421" y="156.7872" style="fill: #00bfbf; stroke: #00bfbf"/>
    </g>
   </g>
   <g id="line2d_46">
    <path d="M 125.30421 201.1392 
" clip-path="url(#p26ddc2c780)" style="fill: none"/>
    <g clip-path="url(#p26ddc2c780)">
     <use xlink:href="#mc355f071ac" x="125.30421" y="201.1392" style="fill: #00bfbf; stroke: #00bfbf"/>
    </g>
   </g>
   <g id="line2d_47">
    <path d="M 97.95884 210.0096 
" clip-path="url(#p26ddc2c780)" style="fill: none"/>
    <defs>
     <path id="m4c9e4ab97e" d="M 0.76496 -10 
L 3.129755 -10 
L 2.549866 -7.001851 
L 0.185071 -7.001851 
L 0.76496 -10 
z
M -0.316677 -4.394407 
L 2.048118 -4.394407 
L -0.76496 10 
L -3.129755 10 
L -0.316677 -4.394407 
z
" style="stroke: #00bfbf"/>
    </defs>
    <g clip-path="url(#p26ddc2c780)">
     <use xlink:href="#m4c9e4ab97e" x="97.95884" y="210.0096" style="fill: #00bfbf; stroke: #00bfbf"/>
    </g>
   </g>
   <g id="line2d_48">
    <path d="M 109.960087 192.2688 
" clip-path="url(#p26ddc2c780)" style="fill: none"/>
    <defs>
     <path id="mafff6d23d5" d="M 1.301259 -5.598967 
L 3.157895 -5.598967 
L 0.929932 5.905715 
L 0.917016 5.954149 
Q 0.545689 7.881821 0.06135 8.598644 
Q -0.39393 9.27349 -1.26897 9.635131 
Q -2.140781 10 -3.329028 10 
L -4.026477 10 
L -3.722958 8.42751 
L -3.248305 8.42751 
Q -2.160155 8.42751 -1.698418 7.972231 
Q -1.23991 7.520181 -0.926703 5.905715 
L 1.301259 -5.598967 
z
M 2.169842 -10 
L 4.026477 -10 
L 3.571198 -7.646109 
L 1.714562 -7.646109 
L 2.169842 -10 
z
" style="stroke: #00bfbf"/>
    </defs>
    <g clip-path="url(#p26ddc2c780)">
     <use xlink:href="#mafff6d23d5" x="109.960087" y="192.2688" style="fill: #00bfbf; stroke: #00bfbf"/>
    </g>
   </g>
   <g id="patch_3">
    <path d="M 57.6 307.584 
L 57.6 41.472 
" style="fill: none; stroke: #000000; stroke-width: 0.8; stroke-linejoin: miter; stroke-linecap: square"/>
   </g>
   <g id="patch_4">
    <path d="M 414.72 307.584 
L 414.72 41.472 
" style="fill: none; stroke: #000000; stroke-width: 0.8; stroke-linejoin: miter; stroke-linecap: square"/>
   </g>
   <g id="patch_5">
    <path d="M 57.6 307.584 
L 414.72 307.584 
" style="fill: none; stroke: #000000; stroke-width: 0.8; stroke-linejoin: miter; stroke-linecap: square"/>
   </g>
   <g id="patch_6">
    <path d="M 57.6 41.472 
L 414.72 41.472 
" style="fill: none; stroke: #000000; stroke-width: 0.8; stroke-linejoin: miter; stroke-linecap: square"/>
   </g>
   <g id="text_17">
    <!-- Phoneme Frequency v. Intelligibility -->
    <g transform="translate(129.522188 35.472) scale(0.12 -0.12)">
     <defs>
      <path id="DejaVuSans-50" d="M 1259 4147 
L 1259 2394 
L 2053 2394 
Q 2494 2394 2734 2622 
Q 2975 2850 2975 3272 
Q 2975 3691 2734 3919 
Q 2494 4147 2053 4147 
L 1259 4147 
z
M 628 4666 
L 2053 4666 
Q 2838 4666 3239 4311 
Q 3641 3956 3641 3272 
Q 3641 2581 3239 2228 
Q 2838 1875 2053 1875 
L 1259 1875 
L 1259 0 
L 628 0 
L 628 4666 
z
" transform="scale(0.015625)"/>
      <path id="DejaVuSans-68" d="M 3513 2113 
L 3513 0 
L 2938 0 
L 2938 2094 
Q 2938 2591 2744 2837 
Q 2550 3084 2163 3084 
Q 1697 3084 1428 2787 
Q 1159 2491 1159 1978 
L 1159 0 
L 581 0 
L 581 4863 
L 1159 4863 
L 1159 2956 
Q 1366 3272 1645 3428 
Q 1925 3584 2291 3584 
Q 2894 3584 3203 3211 
Q 3513 2838 3513 2113 
z
" transform="scale(0.015625)"/>
      <path id="DejaVuSans-6d" d="M 3328 2828 
Q 3544 3216 3844 3400 
Q 4144 3584 4550 3584 
Q 5097 3584 5394 3201 
Q 5691 2819 5691 2113 
L 5691 0 
L 5113 0 
L 5113 2094 
Q 5113 2597 4934 2840 
Q 4756 3084 4391 3084 
Q 3944 3084 3684 2787 
Q 3425 2491 3425 1978 
L 3425 0 
L 2847 0 
L 2847 2094 
Q 2847 2600 2669 2842 
Q 2491 3084 2119 3084 
Q 1678 3084 1418 2786 
Q 1159 2488 1159 1978 
L 1159 0 
L 581 0 
L 581 3500 
L 1159 3500 
L 1159 2956 
Q 1356 3278 1631 3431 
Q 1906 3584 2284 3584 
Q 2666 3584 2933 3390 
Q 3200 3197 3328 2828 
z
" transform="scale(0.015625)"/>
      <path id="DejaVuSans-76" d="M 191 3500 
L 800 3500 
L 1894 563 
L 2988 3500 
L 3597 3500 
L 2284 0 
L 1503 0 
L 191 3500 
z
" transform="scale(0.015625)"/>
      <path id="DejaVuSans-2e" d="M 684 794 
L 1344 794 
L 1344 0 
L 684 0 
L 684 794 
z
" transform="scale(0.015625)"/>
      <path id="DejaVuSans-49" d="M 628 4666 
L 1259 4666 
L 1259 0 
L 628 0 
L 628 4666 
z
" transform="scale(0.015625)"/>
      <path id="DejaVuSans-74" d="M 1172 4494 
L 1172 3500 
L 2356 3500 
L 2356 3053 
L 1172 3053 
L 1172 1153 
Q 1172 725 1289 603 
Q 1406 481 1766 481 
L 2356 481 
L 2356 0 
L 1766 0 
Q 1100 0 847 248 
Q 594 497 594 1153 
L 594 3053 
L 172 3053 
L 172 3500 
L 594 3500 
L 594 4494 
L 1172 4494 
z
" transform="scale(0.015625)"/>
      <path id="DejaVuSans-6c" d="M 603 4863 
L 1178 4863 
L 1178 0 
L 603 0 
L 603 4863 
z
" transform="scale(0.015625)"/>
      <path id="DejaVuSans-69" d="M 603 3500 
L 1178 3500 
L 1178 0 
L 603 0 
L 603 3500 
z
M 603 4863 
L 1178 4863 
L 1178 4134 
L 603 4134 
L 603 4863 
z
" transform="scale(0.015625)"/>
      <path id="DejaVuSans-67" d="M 2906 1791 
Q 2906 2416 2648 2759 
Q 2391 3103 1925 3103 
Q 1463 3103 1205 2759 
Q 947 2416 947 1791 
Q 947 1169 1205 825 
Q 1463 481 1925 481 
Q 2391 481 2648 825 
Q 2906 1169 2906 1791 
z
M 3481 434 
Q 3481 -459 3084 -895 
Q 2688 -1331 1869 -1331 
Q 1566 -1331 1297 -1286 
Q 1028 -1241 775 -1147 
L 775 -588 
Q 1028 -725 1275 -790 
Q 1522 -856 1778 -856 
Q 2344 -856 2625 -561 
Q 2906 -266 2906 331 
L 2906 616 
Q 2728 306 2450 153 
Q 2172 0 1784 0 
Q 1141 0 747 490 
Q 353 981 353 1791 
Q 353 2603 747 3093 
Q 1141 3584 1784 3584 
Q 2172 3584 2450 3431 
Q 2728 3278 2906 2969 
L 2906 3500 
L 3481 3500 
L 3481 434 
z
" transform="scale(0.015625)"/>
      <path id="DejaVuSans-62" d="M 3116 1747 
Q 3116 2381 2855 2742 
Q 2594 3103 2138 3103 
Q 1681 3103 1420 2742 
Q 1159 2381 1159 1747 
Q 1159 1113 1420 752 
Q 1681 391 2138 391 
Q 2594 391 2855 752 
Q 3116 1113 3116 1747 
z
M 1159 2969 
Q 1341 3281 1617 3432 
Q 1894 3584 2278 3584 
Q 2916 3584 3314 3078 
Q 3713 2572 3713 1747 
Q 3713 922 3314 415 
Q 2916 -91 2278 -91 
Q 1894 -91 1617 61 
Q 1341 213 1159 525 
L 1159 0 
L 581 0 
L 581 4863 
L 1159 4863 
L 1159 2969 
z
" transform="scale(0.015625)"/>
     </defs>
     <use xlink:href="#DejaVuSans-50"/>
     <use xlink:href="#DejaVuSans-68" x="60.302734"/>
     <use xlink:href="#DejaVuSans-6f" x="123.681641"/>
     <use xlink:href="#DejaVuSans-6e" x="184.863281"/>
     <use xlink:href="#DejaVuSans-65" x="248.242188"/>
     <use xlink:href="#DejaVuSans-6d" x="309.765625"/>
     <use xlink:href="#DejaVuSans-65" x="407.177734"/>
     <use xlink:href="#DejaVuSans-20" x="468.701172"/>
     <use xlink:href="#DejaVuSans-46" x="500.488281"/>
     <use xlink:href="#DejaVuSans-72" x="550.757812"/>
     <use xlink:href="#DejaVuSans-65" x="589.621094"/>
     <use xlink:href="#DejaVuSans-71" x="651.144531"/>
     <use xlink:href="#DejaVuSans-75" x="714.621094"/>
     <use xlink:href="#DejaVuSans-65" x="778"/>
     <use xlink:href="#DejaVuSans-6e" x="839.523438"/>
     <use xlink:href="#DejaVuSans-63" x="902.902344"/>
     <use xlink:href="#DejaVuSans-79" x="957.882812"/>
     <use xlink:href="#DejaVuSans-20" x="1017.0625"/>
     <use xlink:href="#DejaVuSans-76" x="1048.849609"/>
     <use xlink:href="#DejaVuSans-2e" x="1100.279297"/>
     <use xlink:href="#DejaVuSans-20" x="1132.066406"/>
     <use xlink:href="#DejaVuSans-49" x="1163.853516"/>
     <use xlink:href="#DejaVuSans-6e" x="1193.345703"/>
     <use xlink:href="#DejaVuSans-74" x="1256.724609"/>
     <use xlink:href="#DejaVuSans-65" x="1295.933594"/>
     <use xlink:href="#DejaVuSans-6c" x="1357.457031"/>
     <use xlink:href="#DejaVuSans-6c" x="1385.240234"/>
     <use xlink:href="#DejaVuSans-69" x="1413.023438"/>
     <use xlink:href="#DejaVuSans-67" x="1440.806641"/>
     <use xlink:href="#DejaVuSans-69" x="1504.283203"/>
     <use xlink:href="#DejaVuSans-62" x="1532.066406"/>
     <use xlink:href="#DejaVuSans-69" x="1595.542969"/>
     <use xlink:href="#DejaVuSans-6c" x="1623.326172"/>
     <use xlink:href="#DejaVuSans-69" x="1651.109375"/>
     <use xlink:href="#DejaVuSans-74" x="1678.892578"/>
     <use xlink:href="#DejaVuSans-79" x="1718.101562"/>
    </g>
   </g>
  </g>
 </g>
 <defs>
  <clipPath id="p26ddc2c780">
   <rect x="57.6" y="41.472" width="357.12" height="266.112"/>
  </clipPath>
 </defs>
</svg>
